<svg xmlns="http://www.w3.org/2000/svg" viewBox="0 0 1024 1024" width="1024" height="1024">
  <defs>
    <radialGradient id="bg" cx="50%" cy="38%" r="72%">
      <stop offset="0%" stop-color="#F0A546"/>
      <stop offset="40%" stop-color="#A85A1A"/>
      <stop offset="80%" stop-color="#3A1C08"/>
      <stop offset="100%" stop-color="#150801"/>
    </radialGradient>

    <radialGradient id="vignette" cx="50%" cy="50%" r="65%">
      <stop offset="60%" stop-color="#000000" stop-opacity="0"/>
      <stop offset="100%" stop-color="#000000" stop-opacity="0.55"/>
    </radialGradient>

    <linearGradient id="glassFill" x1="0" y1="0" x2="0" y2="1">
      <stop offset="0%" stop-color="#FFFFFF" stop-opacity="0.97"/>
      <stop offset="100%" stop-color="#F5E8C8" stop-opacity="0.85"/>
    </linearGradient>

    <linearGradient id="liquid" x1="0" y1="0" x2="0" y2="1">
      <stop offset="0%" stop-color="#FF7A45"/>
      <stop offset="100%" stop-color="#C03A1A"/>
    </linearGradient>

    <radialGradient id="olive" cx="40%" cy="35%" r="60%">
      <stop offset="0%" stop-color="#FF6B5C"/>
      <stop offset="100%" stop-color="#9F1F12"/>
    </radialGradient>

    <filter id="softShadow" x="-30%" y="-30%" width="160%" height="160%">
      <feGaussianBlur in="SourceAlpha" stdDeviation="12"/>
      <feOffset dx="0" dy="6" result="offset"/>
      <feComponentTransfer><feFuncA type="linear" slope="0.55"/></feComponentTransfer>
      <feMerge><feMergeNode/><feMergeNode in="SourceGraphic"/></feMerge>
    </filter>
  </defs>

  <!-- Background -->
  <rect width="1024" height="1024" fill="url(#bg)"/>
  <rect width="1024" height="1024" fill="url(#vignette)"/>

  <!-- Subtle outer ring -->
  <circle cx="512.0" cy="512.0" r="478" fill="none" stroke="#F2C770" stroke-width="2" opacity="0.18"/>
  <circle cx="512.0" cy="512.0" r="430" fill="none" stroke="#F2C770" stroke-width="1" opacity="0.10"/>

  <!-- Tick marks -->
  <g>
    <line x1="512.0" y1="42.0" x2="512.0" y2="70.0" stroke="#F2C770" stroke-width="5" stroke-linecap="round" opacity="0.85"/>
    <line x1="553.0" y1="43.8" x2="551.7" y2="57.7" stroke="#F2C770" stroke-width="2.5" stroke-linecap="round" opacity="0.35"/>
    <line x1="593.6" y1="49.1" x2="591.2" y2="62.9" stroke="#F2C770" stroke-width="2.5" stroke-linecap="round" opacity="0.35"/>
    <line x1="633.6" y1="58.0" x2="630.0" y2="71.5" stroke="#F2C770" stroke-width="2.5" stroke-linecap="round" opacity="0.35"/>
    <line x1="672.7" y1="70.3" x2="668.0" y2="83.5" stroke="#F2C770" stroke-width="2.5" stroke-linecap="round" opacity="0.35"/>
    <line x1="710.6" y1="86.0" x2="704.7" y2="98.7" stroke="#F2C770" stroke-width="2.5" stroke-linecap="round" opacity="0.35"/>
    <line x1="747.0" y1="105.0" x2="733.0" y2="129.2" stroke="#F2C770" stroke-width="5" stroke-linecap="round" opacity="0.85"/>
    <line x1="781.6" y1="127.0" x2="773.6" y2="138.5" stroke="#F2C770" stroke-width="2.5" stroke-linecap="round" opacity="0.35"/>
    <line x1="814.1" y1="152.0" x2="805.1" y2="162.7" stroke="#F2C770" stroke-width="2.5" stroke-linecap="round" opacity="0.35"/>
    <line x1="844.3" y1="179.7" x2="834.4" y2="189.6" stroke="#F2C770" stroke-width="2.5" stroke-linecap="round" opacity="0.35"/>
    <line x1="872.0" y1="209.9" x2="861.3" y2="218.9" stroke="#F2C770" stroke-width="2.5" stroke-linecap="round" opacity="0.35"/>
    <line x1="897.0" y1="242.4" x2="885.5" y2="250.4" stroke="#F2C770" stroke-width="2.5" stroke-linecap="round" opacity="0.35"/>
    <line x1="919.0" y1="277.0" x2="894.8" y2="291.0" stroke="#F2C770" stroke-width="5" stroke-linecap="round" opacity="0.85"/>
    <line x1="938.0" y1="313.4" x2="925.3" y2="319.3" stroke="#F2C770" stroke-width="2.5" stroke-linecap="round" opacity="0.35"/>
    <line x1="953.7" y1="351.3" x2="940.5" y2="356.0" stroke="#F2C770" stroke-width="2.5" stroke-linecap="round" opacity="0.35"/>
    <line x1="966.0" y1="390.4" x2="952.5" y2="394.0" stroke="#F2C770" stroke-width="2.5" stroke-linecap="round" opacity="0.35"/>
    <line x1="974.9" y1="430.4" x2="961.1" y2="432.8" stroke="#F2C770" stroke-width="2.5" stroke-linecap="round" opacity="0.35"/>
    <line x1="980.2" y1="471.0" x2="966.3" y2="472.3" stroke="#F2C770" stroke-width="2.5" stroke-linecap="round" opacity="0.35"/>
    <line x1="982.0" y1="512.0" x2="954.0" y2="512.0" stroke="#F2C770" stroke-width="5" stroke-linecap="round" opacity="0.85"/>
    <line x1="980.2" y1="553.0" x2="966.3" y2="551.7" stroke="#F2C770" stroke-width="2.5" stroke-linecap="round" opacity="0.35"/>
    <line x1="974.9" y1="593.6" x2="961.1" y2="591.2" stroke="#F2C770" stroke-width="2.5" stroke-linecap="round" opacity="0.35"/>
    <line x1="966.0" y1="633.6" x2="952.5" y2="630.0" stroke="#F2C770" stroke-width="2.5" stroke-linecap="round" opacity="0.35"/>
    <line x1="953.7" y1="672.7" x2="940.5" y2="668.0" stroke="#F2C770" stroke-width="2.5" stroke-linecap="round" opacity="0.35"/>
    <line x1="938.0" y1="710.6" x2="925.3" y2="704.7" stroke="#F2C770" stroke-width="2.5" stroke-linecap="round" opacity="0.35"/>
    <line x1="919.0" y1="747.0" x2="894.8" y2="733.0" stroke="#F2C770" stroke-width="5" stroke-linecap="round" opacity="0.85"/>
    <line x1="897.0" y1="781.6" x2="885.5" y2="773.6" stroke="#F2C770" stroke-width="2.5" stroke-linecap="round" opacity="0.35"/>
    <line x1="872.0" y1="814.1" x2="861.3" y2="805.1" stroke="#F2C770" stroke-width="2.5" stroke-linecap="round" opacity="0.35"/>
    <line x1="844.3" y1="844.3" x2="834.4" y2="834.4" stroke="#F2C770" stroke-width="2.5" stroke-linecap="round" opacity="0.35"/>
    <line x1="814.1" y1="872.0" x2="805.1" y2="861.3" stroke="#F2C770" stroke-width="2.5" stroke-linecap="round" opacity="0.35"/>
    <line x1="781.6" y1="897.0" x2="773.6" y2="885.5" stroke="#F2C770" stroke-width="2.5" stroke-linecap="round" opacity="0.35"/>
    <line x1="747.0" y1="919.0" x2="733.0" y2="894.8" stroke="#F2C770" stroke-width="5" stroke-linecap="round" opacity="0.85"/>
    <line x1="710.6" y1="938.0" x2="704.7" y2="925.3" stroke="#F2C770" stroke-width="2.5" stroke-linecap="round" opacity="0.35"/>
    <line x1="672.7" y1="953.7" x2="668.0" y2="940.5" stroke="#F2C770" stroke-width="2.5" stroke-linecap="round" opacity="0.35"/>
    <line x1="633.6" y1="966.0" x2="630.0" y2="952.5" stroke="#F2C770" stroke-width="2.5" stroke-linecap="round" opacity="0.35"/>
    <line x1="593.6" y1="974.9" x2="591.2" y2="961.1" stroke="#F2C770" stroke-width="2.5" stroke-linecap="round" opacity="0.35"/>
    <line x1="553.0" y1="980.2" x2="551.7" y2="966.3" stroke="#F2C770" stroke-width="2.5" stroke-linecap="round" opacity="0.35"/>
    <line x1="512.0" y1="982.0" x2="512.0" y2="954.0" stroke="#F2C770" stroke-width="5" stroke-linecap="round" opacity="0.85"/>
    <line x1="471.0" y1="980.2" x2="472.3" y2="966.3" stroke="#F2C770" stroke-width="2.5" stroke-linecap="round" opacity="0.35"/>
    <line x1="430.4" y1="974.9" x2="432.8" y2="961.1" stroke="#F2C770" stroke-width="2.5" stroke-linecap="round" opacity="0.35"/>
    <line x1="390.4" y1="966.0" x2="394.0" y2="952.5" stroke="#F2C770" stroke-width="2.5" stroke-linecap="round" opacity="0.35"/>
    <line x1="351.3" y1="953.7" x2="356.0" y2="940.5" stroke="#F2C770" stroke-width="2.5" stroke-linecap="round" opacity="0.35"/>
    <line x1="313.4" y1="938.0" x2="319.3" y2="925.3" stroke="#F2C770" stroke-width="2.5" stroke-linecap="round" opacity="0.35"/>
    <line x1="277.0" y1="919.0" x2="291.0" y2="894.8" stroke="#F2C770" stroke-width="5" stroke-linecap="round" opacity="0.85"/>
    <line x1="242.4" y1="897.0" x2="250.4" y2="885.5" stroke="#F2C770" stroke-width="2.5" stroke-linecap="round" opacity="0.35"/>
    <line x1="209.9" y1="872.0" x2="218.9" y2="861.3" stroke="#F2C770" stroke-width="2.5" stroke-linecap="round" opacity="0.35"/>
    <line x1="179.7" y1="844.3" x2="189.6" y2="834.4" stroke="#F2C770" stroke-width="2.5" stroke-linecap="round" opacity="0.35"/>
    <line x1="152.0" y1="814.1" x2="162.7" y2="805.1" stroke="#F2C770" stroke-width="2.5" stroke-linecap="round" opacity="0.35"/>
    <line x1="127.0" y1="781.6" x2="138.5" y2="773.6" stroke="#F2C770" stroke-width="2.5" stroke-linecap="round" opacity="0.35"/>
    <line x1="105.0" y1="747.0" x2="129.2" y2="733.0" stroke="#F2C770" stroke-width="5" stroke-linecap="round" opacity="0.85"/>
    <line x1="86.0" y1="710.6" x2="98.7" y2="704.7" stroke="#F2C770" stroke-width="2.5" stroke-linecap="round" opacity="0.35"/>
    <line x1="70.3" y1="672.7" x2="83.5" y2="668.0" stroke="#F2C770" stroke-width="2.5" stroke-linecap="round" opacity="0.35"/>
    <line x1="58.0" y1="633.6" x2="71.5" y2="630.0" stroke="#F2C770" stroke-width="2.5" stroke-linecap="round" opacity="0.35"/>
    <line x1="49.1" y1="593.6" x2="62.9" y2="591.2" stroke="#F2C770" stroke-width="2.5" stroke-linecap="round" opacity="0.35"/>
    <line x1="43.8" y1="553.0" x2="57.7" y2="551.7" stroke="#F2C770" stroke-width="2.5" stroke-linecap="round" opacity="0.35"/>
    <line x1="42.0" y1="512.0" x2="70.0" y2="512.0" stroke="#F2C770" stroke-width="5" stroke-linecap="round" opacity="0.85"/>
    <line x1="43.8" y1="471.0" x2="57.7" y2="472.3" stroke="#F2C770" stroke-width="2.5" stroke-linecap="round" opacity="0.35"/>
    <line x1="49.1" y1="430.4" x2="62.9" y2="432.8" stroke="#F2C770" stroke-width="2.5" stroke-linecap="round" opacity="0.35"/>
    <line x1="58.0" y1="390.4" x2="71.5" y2="394.0" stroke="#F2C770" stroke-width="2.5" stroke-linecap="round" opacity="0.35"/>
    <line x1="70.3" y1="351.3" x2="83.5" y2="356.0" stroke="#F2C770" stroke-width="2.5" stroke-linecap="round" opacity="0.35"/>
    <line x1="86.0" y1="313.4" x2="98.7" y2="319.3" stroke="#F2C770" stroke-width="2.5" stroke-linecap="round" opacity="0.35"/>
    <line x1="105.0" y1="277.0" x2="129.2" y2="291.0" stroke="#F2C770" stroke-width="5" stroke-linecap="round" opacity="0.85"/>
    <line x1="127.0" y1="242.4" x2="138.5" y2="250.4" stroke="#F2C770" stroke-width="2.5" stroke-linecap="round" opacity="0.35"/>
    <line x1="152.0" y1="209.9" x2="162.7" y2="218.9" stroke="#F2C770" stroke-width="2.5" stroke-linecap="round" opacity="0.35"/>
    <line x1="179.7" y1="179.7" x2="189.6" y2="189.6" stroke="#F2C770" stroke-width="2.5" stroke-linecap="round" opacity="0.35"/>
    <line x1="209.9" y1="152.0" x2="218.9" y2="162.7" stroke="#F2C770" stroke-width="2.5" stroke-linecap="round" opacity="0.35"/>
    <line x1="242.4" y1="127.0" x2="250.4" y2="138.5" stroke="#F2C770" stroke-width="2.5" stroke-linecap="round" opacity="0.35"/>
    <line x1="277.0" y1="105.0" x2="291.0" y2="129.2" stroke="#F2C770" stroke-width="5" stroke-linecap="round" opacity="0.85"/>
    <line x1="313.4" y1="86.0" x2="319.3" y2="98.7" stroke="#F2C770" stroke-width="2.5" stroke-linecap="round" opacity="0.35"/>
    <line x1="351.3" y1="70.3" x2="356.0" y2="83.5" stroke="#F2C770" stroke-width="2.5" stroke-linecap="round" opacity="0.35"/>
    <line x1="390.4" y1="58.0" x2="394.0" y2="71.5" stroke="#F2C770" stroke-width="2.5" stroke-linecap="round" opacity="0.35"/>
    <line x1="430.4" y1="49.1" x2="432.8" y2="62.9" stroke="#F2C770" stroke-width="2.5" stroke-linecap="round" opacity="0.35"/>
    <line x1="471.0" y1="43.8" x2="472.3" y2="57.7" stroke="#F2C770" stroke-width="2.5" stroke-linecap="round" opacity="0.35"/>
  </g>

  <!-- Cardinal letters -->
  <g font-family="-apple-system, 'SF Pro Rounded', 'Helvetica Neue', Helvetica, Arial, sans-serif"
     font-weight="700" text-anchor="middle">
    <text x="512.0" y="178" font-size="78" fill="#FF8A4C">N</text>
    <text x="888" y="540" font-size="56" fill="#F2C770" opacity="0.7">E</text>
    <text x="512.0" y="912" font-size="56" fill="#F2C770" opacity="0.7">S</text>
    <text x="136" y="540" font-size="56" fill="#F2C770" opacity="0.7">W</text>
  </g>

  <!-- Martini glass (acts as the compass needle, pointing N) -->
  <g transform="translate(512.0,512.0)" filter="url(#softShadow)">
    <!-- Cone (the glass bowl), apex at bottom center -->
    <path d="M -210,-200 L 210,-200 L 0,40 Z"
          fill="url(#glassFill)" stroke="#FFFFFF" stroke-width="2" stroke-opacity="0.4"/>

    <!-- Liquid (smaller triangle inside the cone) -->
    <path d="M -174,-170 L 174,-170 L 0,15 Z" fill="url(#liquid)" opacity="0.92"/>

    <!-- Rim highlight on the glass top -->
    <path d="M -210,-200 L 210,-200" stroke="#FFFFFF" stroke-width="6" stroke-opacity="0.55" stroke-linecap="round"/>

    <!-- Stem -->
    <rect x="-7" y="40" width="14" height="170" rx="3" fill="url(#glassFill)"/>

    <!-- Base -->
    <ellipse cx="0" cy="218" rx="95" ry="14" fill="url(#glassFill)"/>

    <!-- Olive on a pick -->
    <line x1="-80" y1="-220" x2="55" y2="-95" stroke="#F2C770" stroke-width="4" stroke-linecap="round" opacity="0.9"/>
    <circle cx="55" cy="-95" r="28" fill="url(#olive)" stroke="#7A1A0E" stroke-width="2" stroke-opacity="0.6"/>
    <circle cx="48" cy="-103" r="6" fill="#FFFFFF" opacity="0.6"/>
  </g>
</svg>
